<svg width="110" height="26" viewBox="0 0 110 26" fill="none" xmlns="http://www.w3.org/2000/svg">
<path d="M26.8125 12.5938L13.8125 12.5938L13.8125 4.46875L20.3125 4.46875L26.8125 12.5938Z" fill="#171C18"/>
<path opacity="0.5" d="M-3.55155e-07 13.4062L13 13.4062L13 21.5312L6.5 21.5312L-3.55155e-07 13.4062Z" fill="#171C18"/>
<path d="M26.8125 21.5312L13.8125 21.5312L13.8125 13.4062L20.3125 13.4062L26.8125 21.5312Z" fill="#171C18"/>
<path opacity="0.5" d="M3.55155e-07 4.46875L13 4.46875L13 12.5938L6.5 12.5938L3.55155e-07 4.46875Z" fill="#171C18"/>
<path d="M33.1017 7.96567H40.2179V10.3083H36.1367V12.5477H39.3928V14.7725H36.1367V18.5H33.1017V7.96567ZM44.513 16.7173C45.5247 16.7173 46.0305 16.0444 46.0305 14.6988V14.5809C46.0305 13.2353 45.5247 12.5625 44.513 12.5625C43.4915 12.5625 42.9807 13.2255 42.9807 14.5515V14.6693C42.9807 16.0346 43.4915 16.7173 44.513 16.7173ZM47.5038 17.616C46.7181 18.3232 45.7162 18.6768 44.4982 18.6768C43.2803 18.6768 42.2833 18.333 41.5074 17.6455C40.6921 16.9383 40.2845 15.9708 40.2845 14.743V14.6251C40.2845 13.417 40.6921 12.4348 41.5074 11.6785C42.2833 10.9516 43.2852 10.5882 44.513 10.5882C45.7407 10.5882 46.7377 10.9418 47.5038 11.649C48.3093 12.3955 48.712 13.363 48.712 14.5515V14.6693C48.712 15.8873 48.3093 16.8695 47.5038 17.616ZM53.1744 18.6768C51.9761 18.6768 51.0136 18.3428 50.2867 17.6749C49.5108 16.9776 49.1228 16.0002 49.1228 14.743V14.6251C49.1228 13.3875 49.5255 12.3955 50.3309 11.649C51.097 10.9418 52.0645 10.5882 53.2334 10.5882C54.2647 10.5882 55.1094 10.819 55.7675 11.2807C56.5238 11.8405 56.9364 12.6656 57.0051 13.7559H54.5299C54.412 13.0094 53.9995 12.6361 53.2923 12.6361C52.3101 12.6361 51.819 13.2893 51.819 14.5957V14.7135C51.819 16.069 52.3248 16.7467 53.3365 16.7467C54.1223 16.7467 54.5692 16.3195 54.6772 15.4649H57.0493C57.01 16.457 56.6564 17.2428 55.9885 17.8223C55.3304 18.392 54.3924 18.6768 53.1744 18.6768ZM60.0358 18.6768C59.2893 18.6768 58.6852 18.4951 58.2236 18.1317C57.6932 17.729 57.428 17.1396 57.428 16.3637C57.428 14.6841 58.7933 13.8443 61.5239 13.8443H62.2605V13.6675C62.2605 13.2549 62.1869 12.9504 62.0395 12.754C61.902 12.5477 61.6368 12.4446 61.2439 12.4446C60.6251 12.4446 60.2764 12.7491 60.1979 13.3581H57.7227C57.7816 12.4544 58.1499 11.757 58.8277 11.2659C59.4563 10.8141 60.3157 10.5882 61.406 10.5882C62.5061 10.5882 63.3508 10.819 63.9401 11.2807C64.5688 11.7718 64.8831 12.5134 64.8831 13.5054V18.5H62.3195V17.6013C61.8578 18.3183 61.0966 18.6768 60.0358 18.6768ZM60.9493 16.8941C61.3323 16.8941 61.6466 16.7958 61.8922 16.5994C62.1378 16.3931 62.2605 16.1279 62.2605 15.8038V15.3323H61.5681C61.0278 15.3323 60.635 15.3962 60.3894 15.5239C60.1537 15.6417 60.0358 15.8578 60.0358 16.1721C60.0358 16.6534 60.3403 16.8941 60.9493 16.8941ZM66.1345 7.4058H68.757V18.5H66.1345V7.4058Z" fill="#171C18" fill-opacity="0.752941"/>
<path d="M70.3004 7.96567H75.0004C76.2085 7.96567 77.1122 8.22104 77.7113 8.7318C78.2712 9.20327 78.5511 9.86627 78.5511 10.7208V10.7797C78.5511 11.9879 77.9569 12.7442 76.7684 13.0487C78.173 13.2844 78.8752 14.1046 78.8752 15.5091V15.5681C78.8752 17.5227 77.5984 18.5 75.0446 18.5H70.3004V7.96567ZM74.4994 16.4815C75.4326 16.4815 75.8991 16.0739 75.8991 15.2587V15.1997C75.8991 14.7872 75.7812 14.4827 75.5455 14.2863C75.3098 14.0898 74.9316 13.9916 74.411 13.9916H73.2471V16.4815H74.4994ZM74.3963 12.1499C74.8678 12.1499 75.2017 12.0664 75.3982 11.8995C75.5946 11.7325 75.6928 11.4575 75.6928 11.0744V11.0155C75.6928 10.652 75.5897 10.3868 75.3834 10.2199C75.187 10.0529 74.858 9.9694 74.3963 9.9694H73.2471V12.1499H74.3963ZM79.7375 10.7945H82.3748V12.3267C82.8364 11.2168 83.6664 10.6717 84.8647 10.6913V13.1518C83.2047 13.1027 82.3748 13.6675 82.3748 14.8461V18.5H79.7375V10.7945ZM85.7862 10.7945H88.4235V18.5H85.7862V10.7945ZM88.1288 9.67473C87.8538 9.93011 87.51 10.0578 87.0975 10.0578C86.6849 10.0578 86.3412 9.93011 86.0661 9.67473C85.7911 9.41936 85.6536 9.09522 85.6536 8.70233C85.6536 8.30944 85.7911 7.98531 86.0661 7.72993C86.3412 7.46473 86.6849 7.33213 87.0975 7.33213C87.51 7.33213 87.8538 7.46473 88.1288 7.72993C88.4137 7.98531 88.5561 8.30944 88.5561 8.70233C88.5561 9.09522 88.4137 9.41936 88.1288 9.67473ZM93.5026 18.6768C92.2453 18.6768 91.2484 18.3379 90.5117 17.6602C89.7161 16.9628 89.3183 15.9904 89.3183 14.743V14.6251C89.3183 13.417 89.721 12.4348 90.5264 11.6785C91.3024 10.9516 92.2895 10.5882 93.4878 10.5882C94.6174 10.5882 95.5358 10.9074 96.243 11.5459C97.0189 12.2531 97.4069 13.2598 97.4069 14.5662V15.2587H91.985C92.0243 15.7694 92.1815 16.1672 92.4565 16.4521C92.7413 16.7271 93.1195 16.8646 93.591 16.8646C94.3669 16.8646 94.8138 16.5601 94.9317 15.9511H97.4069C97.289 16.8351 96.8961 17.5129 96.2282 17.9843C95.5701 18.446 94.6616 18.6768 93.5026 18.6768ZM94.8433 13.7706C94.7942 12.808 94.3424 12.3267 93.4878 12.3267C92.6431 12.3267 92.152 12.808 92.0145 13.7706H94.8433ZM98.6216 12.5919H97.6492V10.7945H98.6216V10.1167C98.6216 9.19344 98.8868 8.49115 99.4172 8.00987C99.9574 7.52858 100.699 7.28793 101.642 7.28793C102.074 7.28793 102.477 7.34195 102.85 7.45V9.38007C102.624 9.31131 102.384 9.27693 102.128 9.27693C101.539 9.27693 101.244 9.55687 101.244 10.1167V10.7945H102.806V12.5919H101.244V18.5H98.6216V12.5919Z" fill="#171C18"/>
</svg>
